<svg width="24" height="24" viewBox="0 0 24 24" fill="none" xmlns="http://www.w3.org/2000/svg">
<rect y="24" width="24" height="24" rx="12" transform="rotate(-90 0 24)" fill="url(#paint0_linear_413_9833)"/>
<path fill-rule="evenodd" clip-rule="evenodd" d="M7.21461 11.7392C6.93271 11.4565 6.9279 10.9933 7.20387 10.7045L11.4896 6.21984C11.6239 6.07924 11.8079 6 12 6C12.1921 6 12.3761 6.07924 12.5104 6.21984L16.7961 10.7045C17.0721 10.9933 17.0673 11.4565 16.7854 11.7392C16.5035 12.0219 16.0513 12.017 15.7753 11.7282L12.7143 8.52513L12.7143 17.2683C12.7143 17.6724 12.3945 18 12 18C11.6055 18 11.2857 17.6724 11.2857 17.2683L11.2857 8.52513L8.22471 11.7282C7.94874 12.017 7.49651 12.0219 7.21461 11.7392Z" fill="white"/>
<defs>
<linearGradient id="paint0_linear_413_9833" x1="6.52413e-07" y1="37.3043" x2="18.5491" y2="46.7286" gradientUnits="userSpaceOnUse">
<stop offset="0.155" stop-color="#FF5775"/>
<stop offset="1" stop-color="#9A77FF"/>
</linearGradient>
</defs>
</svg>
