<svg width="76" height="21" viewBox="0 0 76 21" fill="none" xmlns="http://www.w3.org/2000/svg">
    <path d="M60.083 19.317c0 .346-.164.518-.493.518h-3.745c-.329 0-.493-.172-.493-.518V6.875c0-.313.164-.469.493-.469h3.745c.329 0 .493.156.493.469v.197a3.901 3.901 0 0 1 1.207-.567c.46-.148.945-.222 1.454-.222 1.511 0 2.727.468 3.647 1.405.607-.575 1.273-.953 1.995-1.134a8.36 8.36 0 0 1 2.02-.27c.839 0 1.594.139 2.268.418.69.28 1.28.698 1.774 1.257.493.542.87 1.223 1.133 2.045.28.821.419 1.766.419 2.833v6.48c0 .346-.164.518-.493.518h-3.72c-.329 0-.493-.172-.493-.518V13.01c0-.937-.164-1.618-.493-2.045-.329-.427-.821-.64-1.478-.64-.214 0-.452.048-.715.147a1.717 1.717 0 0 0-.665.493c.098.591.148 1.215.148 1.872v6.48c0 .346-.164.518-.493.518h-3.72c-.33 0-.493-.172-.493-.518V13.01c0-.937-.157-1.618-.469-2.045-.295-.427-.837-.64-1.626-.64-.443 0-.846.13-1.207.393v8.6zM46.46 20.204c-1.001 0-1.93-.115-2.784-.345-.837-.213-1.56-.558-2.168-1.034a4.873 4.873 0 0 1-1.429-1.848c-.345-.772-.517-1.7-.517-2.785V12.05c0-1.085.172-2.004.517-2.76.345-.772.821-1.396 1.429-1.873.608-.476 1.33-.82 2.168-1.034.855-.23 1.783-.345 2.785-.345 1.002 0 1.93.115 2.784.345.854.213 1.585.558 2.193 1.034.608.477 1.084 1.101 1.429 1.873.345.756.517 1.675.517 2.76v2.143c0 1.085-.172 2.013-.517 2.785a4.873 4.873 0 0 1-1.43 1.848c-.607.476-1.338.82-2.192 1.034-.854.23-1.782.345-2.784.345zm0-3.991c.395 0 .723-.066.986-.197.28-.132.501-.296.666-.493.164-.214.279-.452.344-.715.082-.262.124-.525.124-.788V12.22a2.4 2.4 0 0 0-.124-.764 1.926 1.926 0 0 0-.345-.714 1.773 1.773 0 0 0-.665-.518c-.263-.131-.591-.197-.985-.197-.395 0-.731.066-1.01.197a1.82 1.82 0 0 0-.641.518c-.165.213-.28.451-.345.714a2.952 2.952 0 0 0-.099.764v1.799c0 .263.033.526.099.788.066.263.18.501.345.715.164.197.378.361.64.493.28.131.616.197 1.01.197zM30.917 20.204c-1.002 0-1.93-.115-2.785-.345-.837-.213-1.56-.558-2.168-1.034a4.873 4.873 0 0 1-1.429-1.848c-.345-.772-.517-1.7-.517-2.785V12.05c0-1.085.172-2.004.517-2.76.345-.772.821-1.396 1.43-1.873.607-.476 1.33-.82 2.167-1.034.855-.23 1.783-.345 2.785-.345 1.002 0 1.93.115 2.784.345.854.213 1.585.558 2.193 1.034.608.477 1.084 1.101 1.429 1.873.345.756.517 1.675.517 2.76v2.143c0 1.085-.172 2.013-.517 2.785a4.874 4.874 0 0 1-1.43 1.848c-.607.476-1.338.82-2.192 1.034-.854.23-1.782.345-2.784.345zm0-3.991c.394 0 .722-.066.985-.197.28-.132.501-.296.666-.493.164-.214.279-.452.345-.715.082-.262.123-.525.123-.788V12.22a2.4 2.4 0 0 0-.123-.764 1.924 1.924 0 0 0-.345-.714 1.772 1.772 0 0 0-.666-.518c-.263-.131-.591-.197-.985-.197-.395 0-.731.066-1.01.197a1.82 1.82 0 0 0-.641.518c-.164.213-.28.451-.345.714a2.948 2.948 0 0 0-.099.764v1.799c0 .263.033.526.099.788.066.263.18.501.345.715.164.197.378.361.64.493.28.131.616.197 1.01.197zM22.046 19.317c0 .345-.165.518-.493.518H17.61c-.328 0-.492-.173-.492-.518V.468c0-.312.164-.468.492-.468h3.918c.345 0 .518.156.518.468v18.85zM7.515 15.547c.821 0 1.478-.14 1.971-.418.493-.296.74-.764.74-1.405 0-.361-.075-.649-.222-.862a1.346 1.346 0 0 0-.641-.518c-.263-.131-.591-.213-.986-.246-.394-.05-.846-.074-1.355-.074H5.57v3.524h1.946zM.517 6.012c0-.329.165-.493.493-.493h4.016c.362 0 .543.164.543.493V8.13h1.207c.903 0 1.577-.115 2.02-.345.46-.23.69-.69.69-1.38 0-.608-.222-1.026-.665-1.256-.427-.247-1.109-.37-2.045-.37H.517C.172 4.78 0 4.616 0 4.287V.985C0 .657.172.493.517.493h6.259c1.166 0 2.21.106 3.13.32.935.214 1.724.542 2.364.986a4.397 4.397 0 0 1 1.504 1.7c.345.69.517 1.51.517 2.464 0 .805-.123 1.52-.37 2.143a5.2 5.2 0 0 1-1.034 1.651c.624.41 1.133.986 1.527 1.725.41.723.616 1.528.616 2.415 0 1.05-.18 1.954-.542 2.71a5.051 5.051 0 0 1-1.528 1.848c-.657.476-1.445.821-2.365 1.035-.92.23-1.947.345-3.08.345h-6.48c-.345 0-.518-.165-.518-.493V6.012z" fill="#E5E4E4"/>
</svg>
