<svg width="20" height="20" viewBox="0 0 20 20" fill="none" xmlns="http://www.w3.org/2000/svg">
    <path d="M9.167 10.417a.833.833 0 0 0 1.667 0V6.25a.833.833 0 1 0-1.667 0v4.167zm.839 7.917a8.066 8.066 0 0 1-3.24-.657 8.467 8.467 0 0 1-2.651-1.791 8.462 8.462 0 0 1-1.792-2.653 8.082 8.082 0 0 1-.656-3.243c0-1.15.219-2.231.656-3.243a8.338 8.338 0 0 1 1.792-2.643 8.553 8.553 0 0 1 2.653-1.78 8.081 8.081 0 0 1 3.243-.657c1.15 0 2.231.219 3.243.656a8.426 8.426 0 0 1 2.642 1.781 8.415 8.415 0 0 1 1.781 2.646 8.1 8.1 0 0 1 .657 3.245c0 1.149-.22 2.229-.657 3.24a8.511 8.511 0 0 1-1.78 2.647 8.414 8.414 0 0 1-2.647 1.792 8.061 8.061 0 0 1-3.244.66zm.005-1.25c1.965 0 3.635-.691 5.01-2.073 1.375-1.382 2.063-3.056 2.063-5.021 0-1.965-.686-3.636-2.059-5.01C13.653 3.603 11.978 2.916 10 2.916c-1.958 0-3.628.686-5.01 2.059C3.608 6.348 2.917 8.023 2.917 10c0 1.959.691 3.629 2.073 5.01 1.382 1.383 3.055 2.074 5.02 2.074z" fill="#9B77FF"/>
    <circle cx=".833" cy=".833" r=".833" transform="matrix(1 0 0 -1 9.167 13.75)" fill="#9B77FF"/>
</svg>
