<svg width="20" height="20" viewBox="0 0 20 20" fill="none" xmlns="http://www.w3.org/2000/svg">
<g id="icon/close-circle-filled-20" clip-path="url(#clip0_233_4711)">
<circle id="Ellipse 22" cx="10.0002" cy="10.0002" r="9.16667" fill="#A2A2A2"/>
<path id="Vector 17 (Stroke)" fill-rule="evenodd" clip-rule="evenodd" d="M6.07757 6.07757C6.40301 5.75214 6.93065 5.75214 7.25609 6.07757L10.0002 8.82165L12.7442 6.07757C13.0697 5.75214 13.5973 5.75214 13.9228 6.07757C14.2482 6.40301 14.2482 6.93065 13.9228 7.25609L11.1787 10.0002L13.9228 12.7442C14.2482 13.0697 14.2482 13.5973 13.9228 13.9228C13.5973 14.2482 13.0697 14.2482 12.7442 13.9228L10.0002 11.1787L7.25609 13.9228C6.93065 14.2482 6.40301 14.2482 6.07757 13.9228C5.75214 13.5973 5.75214 13.0697 6.07757 12.7442L8.82165 10.0002L6.07757 7.25609C5.75214 6.93065 5.75214 6.40301 6.07757 6.07757Z" fill="white"/>
</g>
<defs>
<clipPath id="clip0_233_4711">
<rect width="20" height="20" fill="white"/>
</clipPath>
</defs>
</svg>
