<svg width="139" height="38" viewBox="0 0 139 38" fill="none" xmlns="http://www.w3.org/2000/svg">
<path d="M109.577 36.0697C109.577 36.696 109.279 37.0091 108.682 37.0091H101.883C101.286 37.0091 100.988 36.696 100.988 36.0697V13.4803C100.988 12.9137 101.286 12.6304 101.883 12.6304H108.682C109.279 12.6304 109.577 12.9137 109.577 13.4803V13.8381C110.203 13.3908 110.934 13.0479 111.769 12.8093C112.604 12.5409 113.483 12.4067 114.408 12.4067C117.151 12.4067 119.358 13.2566 121.028 14.9564C122.131 13.9127 123.339 13.2268 124.651 12.8988C125.963 12.5708 127.186 12.4067 128.319 12.4067C129.84 12.4067 131.212 12.6602 132.435 13.1672C133.687 13.6741 134.761 14.4346 135.655 15.4485C136.55 16.4326 137.236 17.6702 137.713 19.1612C138.22 20.6523 138.473 22.367 138.473 24.3053V36.0697C138.473 36.696 138.175 37.0091 137.579 37.0091H130.824C130.228 37.0091 129.93 36.696 129.93 36.0697V24.6185C129.93 22.9187 129.631 21.6811 129.035 20.9057C128.439 20.1304 127.544 19.7427 126.351 19.7427C125.963 19.7427 125.531 19.8322 125.054 20.0111C124.607 20.19 124.204 20.4882 123.846 20.9057C124.025 21.9793 124.115 23.1125 124.115 24.3053V36.0697C124.115 36.696 123.816 37.0091 123.22 37.0091H116.465C115.869 37.0091 115.571 36.696 115.571 36.0697V24.6185C115.571 22.9187 115.287 21.6811 114.721 20.9057C114.184 20.1304 113.2 19.7427 111.769 19.7427C110.963 19.7427 110.233 19.9813 109.577 20.4584V36.0697Z" fill="white"/>
<path d="M84.8466 37.6794C83.0275 37.6794 81.3426 37.4706 79.7919 37.0531C78.2711 36.6655 76.9589 36.0392 75.8556 35.1744C74.7522 34.3096 73.8874 33.1913 73.2611 31.8196C72.6349 30.418 72.3218 28.7331 72.3218 26.7649V22.8732C72.3218 20.9051 72.6349 19.2351 73.2611 17.8633C73.8874 16.4617 74.7522 15.3285 75.8556 14.4637C76.9589 13.5989 78.2711 12.9727 79.7919 12.585C81.3426 12.1675 83.0275 11.9587 84.8466 11.9587C86.6657 11.9587 88.3506 12.1675 89.9013 12.585C91.452 12.9727 92.779 13.5989 93.8824 14.4637C94.9858 15.3285 95.8506 16.4617 96.4768 17.8633C97.1031 19.2351 97.4162 20.9051 97.4162 22.8732V26.7649C97.4162 28.7331 97.1031 30.418 96.4768 31.8196C95.8506 33.1913 94.9858 34.3096 93.8824 35.1744C92.779 36.0392 91.452 36.6655 89.9013 37.0531C88.3506 37.4706 86.6657 37.6794 84.8466 37.6794ZM84.8466 30.4329C85.5623 30.4329 86.1587 30.3136 86.6359 30.075C87.1428 29.8365 87.5454 29.5382 87.8436 29.1804C88.1418 28.7927 88.3506 28.3603 88.4699 27.8832C88.619 27.406 88.6935 26.9289 88.6935 26.4518V23.1864C88.6935 22.7092 88.619 22.247 88.4699 21.7997C88.3506 21.3225 88.1418 20.8901 87.8436 20.5025C87.5454 20.1148 87.1428 19.8017 86.6359 19.5631C86.1587 19.3245 85.5623 19.2053 84.8466 19.2053C84.1309 19.2053 83.5196 19.3245 83.0126 19.5631C82.5355 19.8017 82.1478 20.1148 81.8496 20.5025C81.5514 20.8901 81.3426 21.3225 81.2234 21.7997C81.1041 22.247 81.0444 22.7092 81.0444 23.1864V26.4518C81.0444 26.9289 81.1041 27.406 81.2234 27.8832C81.3426 28.3603 81.5514 28.7927 81.8496 29.1804C82.1478 29.5382 82.5355 29.8365 83.0126 30.075C83.5196 30.3136 84.1309 30.4329 84.8466 30.4329Z" fill="white"/>
<path d="M56.6274 37.6794C54.8083 37.6794 53.1234 37.4706 51.5727 37.0531C50.0518 36.6655 48.7397 36.0392 47.6363 35.1744C46.533 34.3096 45.6681 33.1913 45.0419 31.8196C44.4157 30.418 44.1025 28.7331 44.1025 26.7649V22.8732C44.1025 20.9051 44.4157 19.2351 45.0419 17.8633C45.6681 16.4617 46.533 15.3285 47.6363 14.4637C48.7397 13.5989 50.0518 12.9727 51.5727 12.585C53.1234 12.1675 54.8083 11.9587 56.6274 11.9587C58.4465 11.9587 60.1314 12.1675 61.682 12.585C63.2327 12.9727 64.5598 13.5989 65.6632 14.4637C66.7665 15.3285 67.6313 16.4617 68.2576 17.8633C68.8838 19.2351 69.1969 20.9051 69.1969 22.8732V26.7649C69.1969 28.7331 68.8838 30.418 68.2576 31.8196C67.6313 33.1913 66.7665 34.3096 65.6632 35.1744C64.5598 36.0392 63.2327 36.6655 61.682 37.0531C60.1314 37.4706 58.4465 37.6794 56.6274 37.6794ZM56.6274 30.4329C57.3431 30.4329 57.9395 30.3136 58.4166 30.075C58.9236 29.8365 59.3262 29.5382 59.6244 29.1804C59.9226 28.7927 60.1314 28.3603 60.2506 27.8832C60.3997 27.406 60.4743 26.9289 60.4743 26.4518V23.1864C60.4743 22.7092 60.3997 22.247 60.2506 21.7997C60.1314 21.3225 59.9226 20.8901 59.6244 20.5025C59.3262 20.1148 58.9236 19.8017 58.4166 19.5631C57.9395 19.3245 57.3431 19.2053 56.6274 19.2053C55.9117 19.2053 55.3003 19.3245 54.7934 19.5631C54.3162 19.8017 53.9286 20.1148 53.6304 20.5025C53.3322 20.8901 53.1234 21.3225 53.0041 21.7997C52.8848 22.247 52.8252 22.7092 52.8252 23.1864V26.4518C52.8252 26.9289 52.8848 27.406 53.0041 27.8832C53.1234 28.3603 53.3322 28.7927 53.6304 29.1804C53.9286 29.5382 54.3162 29.8365 54.7934 30.075C55.3003 30.3136 55.9117 30.4329 56.6274 30.4329Z" fill="white"/>
<path d="M40.522 36.0695C40.522 36.6958 40.2238 37.0089 39.6274 37.0089H32.4703C31.8739 37.0089 31.5757 36.6958 31.5757 36.0695V1.8499C31.5757 1.2833 31.8739 1 32.4703 1H39.5826C40.2089 1 40.522 1.2833 40.522 1.8499V36.0695Z" fill="white"/>
<path d="M14.1431 29.2253C15.6342 29.2253 16.827 28.9718 17.7217 28.4648C18.6163 27.9281 19.0636 27.0782 19.0636 25.9151C19.0636 25.2591 18.9294 24.7372 18.661 24.3495C18.3926 23.932 18.005 23.6189 17.498 23.4102C17.0209 23.1716 16.4244 23.0225 15.7087 22.9629C14.993 22.8734 14.173 22.8287 13.2485 22.8287H10.6093V29.2253H14.1431ZM1.43936 11.9142C1.43936 11.3177 1.73757 11.0195 2.33399 11.0195H9.62524C10.2813 11.0195 10.6093 11.3177 10.6093 11.9142V15.7611H12.8012C14.4413 15.7611 15.664 15.5523 16.4692 15.1348C17.3042 14.7173 17.7217 13.8823 17.7217 12.6299C17.7217 11.5265 17.3191 10.766 16.5139 10.3486C15.7386 9.90124 14.501 9.67758 12.8012 9.67758H1.43936C0.813121 9.67758 0.5 9.37937 0.5 8.78295V2.78892C0.5 2.1925 0.813121 1.89429 1.43936 1.89429H12.8012C14.9185 1.89429 16.8121 2.08812 18.4821 2.4758C20.1819 2.86347 21.6133 3.45989 22.7763 4.26506C23.9692 5.07023 24.8787 6.09905 25.5049 7.35154C26.1312 8.60402 26.4443 10.0951 26.4443 11.8247C26.4443 13.2859 26.2207 14.5831 25.7733 15.7163C25.326 16.8495 24.6998 17.8485 23.8946 18.7134C25.0278 19.4589 25.9523 20.5026 26.668 21.8446C27.4135 23.1567 27.7863 24.6179 27.7863 26.2283C27.7863 28.1368 27.4582 29.777 26.8022 31.1487C26.1461 32.4907 25.2216 33.609 24.0288 34.5036C22.836 35.3684 21.4046 35.9947 19.7346 36.3823C18.0646 36.7998 16.2008 37.0086 14.1431 37.0086H2.37873C1.75248 37.0086 1.43936 36.7104 1.43936 36.1139V11.9142Z" fill="white"/>
</svg>
