<svg width="20" height="20" viewBox="0 0 20 20" fill="none" xmlns="http://www.w3.org/2000/svg">
    <path fill-rule="evenodd" clip-rule="evenodd" d="M.833 6.667c0-.46.373-.833.833-.833h16.667a.833.833 0 0 1 0 1.666H1.666a.833.833 0 0 1-.833-.833zM19.167 13.333a.833.833 0 0 0-.833-.833H1.667a.833.833 0 1 0 0 1.667h16.667c.46 0 .833-.373.833-.834z" fill="#666"/>
    <path d="M8.333 6.667a1.667 1.667 0 1 1-3.333 0 1.667 1.667 0 0 1 3.333 0z" fill="#fff"/>
    <path fill-rule="evenodd" clip-rule="evenodd" d="M6.667 5.833a.833.833 0 1 0 0 1.667.833.833 0 0 0 0-1.667zm-2.5.833a2.5 2.5 0 1 1 5 0 2.5 2.5 0 0 1-5 0z" fill="#666"/>
    <path d="M11.667 13.333a1.667 1.667 0 1 0 3.333 0 1.667 1.667 0 0 0-3.333 0z" fill="#fff"/>
    <path fill-rule="evenodd" clip-rule="evenodd" d="M13.333 12.5a.833.833 0 1 1 0 1.667.833.833 0 0 1 0-1.667zm2.5.834a2.5 2.5 0 1 0-5 0 2.5 2.5 0 0 0 5 0z" fill="#666"/>
</svg>
