<svg width="16" height="16" viewBox="0 0 16 16" fill="none" xmlns="http://www.w3.org/2000/svg">
    <path fill-rule="evenodd" clip-rule="evenodd" d="M1.6 8c0-.369.26-.667.581-.667h11.637c.321 0 .582.298.582.667 0 .368-.26.666-.582.666H2.18c-.32 0-.581-.298-.581-.666zM1.6 3.466c0-.368.26-.666.581-.666h11.637c.321 0 .582.298.582.666 0 .369-.26.667-.582.667H2.18c-.32 0-.581-.298-.581-.667zM14.4 12.533c0-.368-.26-.667-.581-.667H2.182c-.321 0-.582.299-.582.667 0 .368.26.667.582.667H13.82c.32 0 .581-.299.581-.667z" fill="#FF5775"/>
</svg>
