<svg width="20" height="20" viewBox="0 0 20 20" fill="none" xmlns="http://www.w3.org/2000/svg">
<path fill-rule="evenodd" clip-rule="evenodd" d="M8.33317 3.33317C5.57175 3.33317 3.33317 5.57175 3.33317 8.33317C3.33317 11.0946 5.57175 13.3332 8.33317 13.3332C11.0946 13.3332 13.3332 11.0946 13.3332 8.33317C13.3332 5.57175 11.0946 3.33317 8.33317 3.33317ZM1.6665 8.33317C1.6665 4.65127 4.65127 1.6665 8.33317 1.6665C12.0151 1.6665 14.9998 4.65127 14.9998 8.33317C14.9998 12.0151 12.0151 14.9998 8.33317 14.9998C4.65127 14.9998 1.6665 12.0151 1.6665 8.33317Z" fill="#A2A2A2"/>
<path fill-rule="evenodd" clip-rule="evenodd" d="M11.9106 11.9106C12.236 11.5851 12.7637 11.5851 13.0891 11.9106L18.0891 16.9106C18.4145 17.236 18.4145 17.7637 18.0891 18.0891C17.7637 18.4145 17.236 18.4145 16.9106 18.0891L11.9106 13.0891C11.5851 12.7637 11.5851 12.236 11.9106 11.9106Z" fill="#A2A2A2"/>
</svg>
